<svg xmlns="http://www.w3.org/2000/svg" viewBox="0 0 600 300" width="600" height="300">
  <defs>
    <linearGradient id="bg" x1="0" y1="0" x2="1" y2="1"><stop offset="0" stop-color="#0a0f1e"/><stop offset="1" stop-color="#141033"/></linearGradient>
    <linearGradient id="ac" x1="0" y1="0" x2="1" y2="0"><stop offset="0" stop-color="#2ec5ff"/><stop offset="1" stop-color="#c084fc"/></linearGradient>
  </defs>
  <rect width="600" height="300" rx="12" fill="url(#bg)"/>
  <rect x="1" y="1" width="598" height="298" rx="12" fill="none" stroke="url(#ac)" stroke-opacity="0.35"/>
  <text x="24" y="30" font-family="Segoe UI, sans-serif" font-weight="700" font-size="14" fill="url(#ac)">DTI · drug-target interaction</text>
  <!-- molecule -->
  <g transform="translate(300,170)" stroke="#7dd3fc" stroke-width="2" fill="#0a0f1e">
    <line x1="-90" y1="0" x2="-30" y2="-40" stroke="#c084fc"/>
    <line x1="-30" y1="-40" x2="30" y2="-40" stroke="#c084fc"/>
    <line x1="30" y1="-40" x2="90" y2="0"/>
    <line x1="90" y1="0" x2="30" y2="40"/>
    <line x1="30" y1="40" x2="-30" y2="40"/>
    <line x1="-30" y1="40" x2="-90" y2="0"/>
    <line x1="-30" y1="-40" x2="-30" y2="40"/>
    <line x1="30" y1="-40" x2="30" y2="40"/>
    <circle cx="-90" cy="0" r="10" fill="#2ec5ff"/>
    <circle cx="-30" cy="-40" r="10" fill="#c084fc"/>
    <circle cx="30" cy="-40" r="10" fill="#2ec5ff"/>
    <circle cx="90" cy="0" r="10" fill="#c084fc"/>
    <circle cx="30" cy="40" r="10" fill="#2ec5ff"/>
    <circle cx="-30" cy="40" r="10" fill="#c084fc"/>
  </g>
  <text x="24" y="270" font-family="ui-monospace, monospace" font-size="12" fill="#94a3b8">CNN · PyTorch · Plotly</text>
</svg>
