<svg xmlns="http://www.w3.org/2000/svg" viewBox="0 0 600 300" width="600" height="300">
  <defs>
    <linearGradient id="bg" x1="0" y1="0" x2="1" y2="1"><stop offset="0" stop-color="#0a0f1e"/><stop offset="1" stop-color="#0f1a33"/></linearGradient>
    <linearGradient id="ac" x1="0" y1="0" x2="1" y2="0"><stop offset="0" stop-color="#2ec5ff"/><stop offset="1" stop-color="#c084fc"/></linearGradient>
    <linearGradient id="area" x1="0" y1="0" x2="0" y2="1"><stop offset="0" stop-color="#2ec5ff" stop-opacity="0.5"/><stop offset="1" stop-color="#2ec5ff" stop-opacity="0"/></linearGradient>
  </defs>
  <rect width="600" height="300" rx="12" fill="url(#bg)"/>
  <rect x="1" y="1" width="598" height="298" rx="12" fill="none" stroke="url(#ac)" stroke-opacity="0.35"/>
  <text x="24" y="30" font-family="Segoe UI, sans-serif" font-weight="700" font-size="14" fill="url(#ac)">STOCKAI · forecast</text>
  <!-- grid -->
  <g stroke="#1e293b" stroke-width="1">
    <line x1="40" y1="80" x2="560" y2="80"/>
    <line x1="40" y1="140" x2="560" y2="140"/>
    <line x1="40" y1="200" x2="560" y2="200"/>
    <line x1="40" y1="260" x2="560" y2="260"/>
  </g>
  <path d="M40,240 L100,220 L160,200 L220,210 L280,170 L340,180 L400,140 L460,120 L520,90 L560,100 L560,260 L40,260 Z" fill="url(#area)"/>
  <path d="M40,240 L100,220 L160,200 L220,210 L280,170 L340,180 L400,140 L460,120 L520,90 L560,100" fill="none" stroke="#c084fc" stroke-width="2.5"/>
  <circle cx="520" cy="90" r="4" fill="#c084fc"/>
</svg>
