<svg xmlns="http://www.w3.org/2000/svg" viewBox="0 0 600 300" width="600" height="300">
  <defs>
    <linearGradient id="bg" x1="0" y1="0" x2="1" y2="1"><stop offset="0" stop-color="#0a0f1e"/><stop offset="1" stop-color="#160a2e"/></linearGradient>
    <linearGradient id="ac" x1="0" y1="0" x2="1" y2="0"><stop offset="0" stop-color="#2ec5ff"/><stop offset="1" stop-color="#c084fc"/></linearGradient>
    <radialGradient id="glow" cx="50%" cy="50%" r="50%"><stop offset="0" stop-color="#c084fc" stop-opacity="0.4"/><stop offset="1" stop-color="#c084fc" stop-opacity="0"/></radialGradient>
  </defs>
  <rect width="600" height="300" rx="12" fill="url(#bg)"/>
  <circle cx="450" cy="150" r="180" fill="url(#glow)"/>
  <rect x="1" y="1" width="598" height="298" rx="12" fill="none" stroke="url(#ac)" stroke-opacity="0.35"/>
  <text x="24" y="30" font-family="Segoe UI, sans-serif" font-weight="700" font-size="14" fill="url(#ac)">PORTFOLIO · varshith-portfolio</text>
  <!-- browser -->
  <rect x="40" y="60" width="520" height="210" rx="10" fill="#0f172a" stroke="#334155"/>
  <circle cx="60" cy="80" r="4" fill="#ef4444"/><circle cx="76" cy="80" r="4" fill="#f59e0b"/><circle cx="92" cy="80" r="4" fill="#22c55e"/>
  <rect x="60" y="110" width="180" height="14" rx="3" fill="url(#ac)"/>
  <rect x="60" y="134" width="300" height="8" rx="3" fill="#334155"/>
  <rect x="60" y="150" width="260" height="8" rx="3" fill="#334155"/>
  <rect x="60" y="180" width="80" height="26" rx="6" fill="#1e293b" stroke="#2ec5ff"/>
  <rect x="150" y="180" width="80" height="26" rx="6" fill="#1e293b" stroke="#c084fc"/>
  <rect x="380" y="110" width="150" height="130" rx="8" fill="#131a33" stroke="#334155"/>
</svg>
